<svg xmlns="http://www.w3.org/2000/svg" width="16" height="16" viewBox="0 0 16 16" fill="none">
    <path
        d="M5.22872 2.53472C6.5812 1.73378 7.25747 1.33331 8 1.33331C8.74253 1.33331 9.4188 1.73378 10.7713 2.53472L11.2287 2.80562C12.5812 3.60656 13.2575 4.00703 13.6287 4.66665C14 5.32627 14 6.12721 14 7.72911V8.27085C14 9.87278 14 10.6737 13.6287 11.3333C13.2575 11.9929 12.5812 12.3934 11.2287 13.1943L10.7713 13.4652C9.4188 14.2662 8.74253 14.6666 8 14.6666C7.25747 14.6666 6.5812 14.2662 5.22872 13.4652L4.77128 13.1943C3.4188 12.3934 2.74256 11.9929 2.37128 11.3333C2 10.6737 2 9.87278 2 8.27085V7.72911C2 6.12721 2 5.32627 2.37128 4.66665C2.74256 4.00703 3.4188 3.60656 4.77128 2.80562L5.22872 2.53472Z"
        stroke="#1F2937" stroke-width="1.2" />
    <path
        d="M8 10C9.10457 10 10 9.10457 10 8C10 6.89543 9.10457 6 8 6C6.89543 6 6 6.89543 6 8C6 9.10457 6.89543 10 8 10Z"
        stroke="#1F2937" stroke-width="1.2" />
</svg>