<svg width="20" height="20" viewBox="0 0 20 20" fill="none" xmlns="http://www.w3.org/2000/svg">
    <path fill-rule="evenodd" clip-rule="evenodd"
        d="M5.83317 1.45898C6.17835 1.45898 6.45817 1.73881 6.45817 2.08398V2.71958C7.00986 2.70898 7.61767 2.70898 8.28615 2.70898H11.7135C12.382 2.70898 12.9898 2.70898 13.5415 2.71958V2.08398C13.5415 1.73881 13.8213 1.45898 14.1665 1.45898C14.5117 1.45898 14.7915 1.73881 14.7915 2.08398V2.77323C15.0081 2.78974 15.2133 2.8105 15.4073 2.83659C16.3843 2.96795 17.1752 3.24472 17.7988 3.86835C18.4224 4.49199 18.6992 5.28278 18.8306 6.2598C18.8725 6.57204 18.9007 6.91281 18.9196 7.28404C18.9446 7.35153 18.9582 7.42449 18.9582 7.50065C18.9582 7.55842 18.9503 7.61435 18.9357 7.66745C18.9582 8.33573 18.9582 9.09465 18.9582 9.95365V11.7143C18.9582 13.2458 18.9582 14.4588 18.8306 15.4082C18.6992 16.3852 18.4224 17.176 17.7988 17.7997C17.1752 18.4232 16.3843 18.7 15.4073 18.8314C14.458 18.959 13.245 18.959 11.7135 18.959H8.28616C6.7547 18.959 5.54166 18.959 4.59232 18.8314C3.6153 18.7 2.82451 18.4232 2.20087 17.7997C1.57724 17.176 1.30047 16.3852 1.16912 15.4082C1.04148 14.4588 1.04149 13.2458 1.0415 11.7143V9.95365C1.0415 9.09457 1.04149 8.33573 1.06401 7.66746C1.04935 7.61436 1.0415 7.55842 1.0415 7.50065C1.0415 7.4245 1.05512 7.35153 1.08006 7.28403C1.09896 6.9128 1.12714 6.57203 1.16912 6.2598C1.30047 5.28278 1.57724 4.49199 2.20087 3.86835C2.82451 3.24472 3.6153 2.96795 4.59232 2.83659C4.78642 2.8105 4.99155 2.78974 5.20817 2.77323V2.08398C5.20817 1.73881 5.488 1.45898 5.83317 1.45898ZM2.30241 8.12565C2.29177 8.66957 2.2915 9.28898 2.2915 10.0007V11.6673C2.2915 13.2563 2.29283 14.3852 2.40797 15.2417C2.52069 16.08 2.73208 16.5631 3.08475 16.9157C3.43743 17.2684 3.92047 17.4798 4.75888 17.5925C5.61526 17.7077 6.74415 17.709 8.33317 17.709H11.6665C13.2555 17.709 14.3844 17.7077 15.2408 17.5925C16.0792 17.4798 16.5623 17.2684 16.9149 16.9157C17.2676 16.5631 17.479 16.08 17.5917 15.2417C17.7068 14.3852 17.7082 13.2563 17.7082 11.6673V10.0007C17.7082 9.28898 17.7079 8.66957 17.6973 8.12565H2.30241ZM17.6401 6.87565H2.35957C2.37292 6.71783 2.38888 6.56834 2.40797 6.42636C2.52069 5.58795 2.73208 5.10491 3.08475 4.75223C3.43743 4.39956 3.92047 4.18817 4.75888 4.07545C5.61526 3.96031 6.74415 3.95898 8.33317 3.95898H11.6665C13.2555 3.95898 14.3844 3.96031 15.2408 4.07545C16.0792 4.18817 16.5623 4.39956 16.9149 4.75223C17.2676 5.10491 17.479 5.58795 17.5917 6.42636C17.6108 6.56834 17.6268 6.71783 17.6401 6.87565Z"
        fill="#9CA3AF" />
</svg>
    