<svg xmlns="http://www.w3.org/2000/svg" width="16" height="16" viewBox="0 0 16 16" fill="none">
    <g clip-path="url(#clip0_2_659)">
        <path
            d="M8.5 6C8.5 5.72386 8.27613 5.5 8 5.5C7.72387 5.5 7.5 5.72386 7.5 6V7.5H6C5.72386 7.5 5.5 7.72387 5.5 8C5.5 8.27613 5.72386 8.5 6 8.5H7.5V10C7.5 10.2761 7.72387 10.5 8 10.5C8.27613 10.5 8.5 10.2761 8.5 10V8.5H10C10.2761 8.5 10.5 8.27613 10.5 8C10.5 7.72387 10.2761 7.5 10 7.5H8.5V6Z"
            fill="#1F2937" />
        <path fill-rule="evenodd" clip-rule="evenodd"
            d="M7.99998 0.833328C4.04194 0.833328 0.833313 4.04195 0.833313 7.99999C0.833313 11.9581 4.04194 15.1667 7.99998 15.1667C11.958 15.1667 15.1666 11.9581 15.1666 7.99999C15.1666 4.04195 11.958 0.833328 7.99998 0.833328ZM1.83331 7.99999C1.83331 4.59424 4.59423 1.83333 7.99998 1.83333C11.4057 1.83333 14.1666 4.59424 14.1666 7.99999C14.1666 11.4057 11.4057 14.1667 7.99998 14.1667C4.59423 14.1667 1.83331 11.4057 1.83331 7.99999Z"
            fill="#1F2937" />
    </g>
    <defs>
        <clipPath id="clip0_2_659">
            <rect width="16" height="16" fill="white" />
        </clipPath>
    </defs>
</svg>