<svg width="20" height="20" viewBox="0 0 20 20" fill="none" xmlns="http://www.w3.org/2000/svg">
    <path fill-rule="evenodd" clip-rule="evenodd"
        d="M5.09653 3.61022C4.50623 4.48787 4.07821 5.68379 4.07821 6.92917C4.07821 7.27435 3.79839 7.55417 3.45321 7.55417C3.10804 7.55417 2.82821 7.27435 2.82821 6.92917C2.82821 5.4114 3.34425 3.97573 4.05931 2.9126C4.41752 2.38002 4.83713 1.92375 5.28753 1.59499C5.73245 1.27023 6.24857 1.04102 6.78655 1.04102C8.09085 1.04102 9.07817 1.96822 9.70759 3.4503C10.337 4.9326 10.6851 7.11252 10.6851 9.99945C10.6851 12.8143 11.0284 14.801 11.563 16.06C12.0977 17.3192 12.7471 17.7078 13.3333 17.7078C13.518 17.7078 13.7798 17.6245 14.0954 17.3942C14.4055 17.1679 14.7289 16.8264 15.0234 16.3886C15.6137 15.511 16.0417 14.315 16.0417 13.0697C16.0417 12.7245 16.3215 12.4447 16.6667 12.4447C17.0119 12.4447 17.2917 12.7245 17.2917 13.0697C17.2917 14.5875 16.7757 16.0231 16.0606 17.0862C15.7024 17.6188 15.2828 18.0751 14.8324 18.4039C14.3874 18.7286 13.8713 18.9578 13.3333 18.9578C12.0291 18.9578 11.0418 18.0306 10.4124 16.5486C9.783 15.0664 9.43509 12.8864 9.43509 9.99945C9.43509 7.1847 9.09167 5.19788 8.557 3.93888C8.02226 2.67967 7.37285 2.29102 6.78655 2.29102C6.60191 2.29102 6.34005 2.3743 6.0245 2.60463C5.71441 2.83097 5.39101 3.1724 5.09653 3.61022ZM1.0415 9.99945C1.0415 9.65428 1.32133 9.37445 1.6665 9.37445H7.9165C8.26168 9.37445 8.5415 9.65428 8.5415 9.99945C8.5415 10.3447 8.26168 10.6244 7.9165 10.6244H1.6665C1.32133 10.6244 1.0415 10.3447 1.0415 9.99945ZM11.4582 9.99945C11.4582 9.65428 11.738 9.37445 12.0832 9.37445H18.3332C18.6783 9.37445 18.9582 9.65428 18.9582 9.99945C18.9582 10.3447 18.6783 10.6244 18.3332 10.6244H12.0832C11.738 10.6244 11.4582 10.3447 11.4582 9.99945Z"
        fill="#374151" />
</svg>
    