<svg xmlns="http://www.w3.org/2000/svg" width="12" height="12" viewBox="0 0 12 12" fill="none">
    <g clip-path="url(#clip0_2_424)">
        <path fill-rule="evenodd" clip-rule="evenodd"
            d="M0.625 6.00037C0.625 3.03184 3.03147 0.625366 6 0.625366C8.96855 0.625366 11.375 3.03184 11.375 6.00037C11.375 8.96892 8.96855 11.3754 6 11.3754C3.03147 11.3754 0.625 8.96892 0.625 6.00037ZM6 1.37537C3.44568 1.37537 1.375 3.44605 1.375 6.00037C1.375 8.55467 3.44568 10.6254 6 10.6254C8.5543 10.6254 10.625 8.55467 10.625 6.00037C10.625 3.44605 8.5543 1.37537 6 1.37537Z"
            fill="#6B7280" />
        <path fill-rule="evenodd" clip-rule="evenodd"
            d="M6.14285 4.37537C5.1417 4.37537 4.375 5.12687 4.375 6.00037C4.375 6.87387 5.1417 7.62537 6.14285 7.62537C6.3987 7.62537 6.6405 7.57557 6.8584 7.48672C7.05015 7.40852 7.26905 7.50057 7.34725 7.69237C7.42545 7.88412 7.33335 8.10297 7.1416 8.18117C6.8345 8.30642 6.49655 8.37537 6.14285 8.37537C4.77707 8.37537 3.625 7.33597 3.625 6.00037C3.625 4.66474 4.77707 3.62537 6.14285 3.62537C6.49655 3.62537 6.8345 3.69432 7.1416 3.81955C7.33335 3.89775 7.42545 4.11661 7.34725 4.30839C7.26905 4.50016 7.05015 4.59223 6.8584 4.51402C6.6405 4.42517 6.3987 4.37537 6.14285 4.37537Z"
            fill="#6B7280" />
    </g>
    <defs>
        <clipPath id="clip0_2_424">
            <rect width="12" height="12" fill="white" transform="translate(0 0.000366211)" />
        </clipPath>
    </defs>
</svg>