<svg xmlns="http://www.w3.org/2000/svg" width="14" height="14" viewBox="0 0 14 14" fill="none">
    <g clip-path="url(#clip0_2_405)">
        <path
            d="M7.37603 13.8722C6.98208 13.8721 6.58879 13.84 6.20003 13.7762C4.2985 13.4642 2.59856 12.4102 1.47357 10.8457C0.348581 9.28122 -0.109466 7.33418 0.200031 5.43223C0.373219 4.34948 0.790618 3.32036 1.42059 2.42287C2.05057 1.52539 2.87658 0.783086 3.83603 0.252234C3.9979 0.16179 4.18234 0.119741 4.36742 0.131087C4.5525 0.142432 4.73042 0.206696 4.88003 0.316234C5.03295 0.420868 5.15217 0.567687 5.22319 0.738832C5.2942 0.909978 5.31395 1.09807 5.28003 1.28023L4.76003 1.24023L5.25203 1.32823C4.97445 2.80063 5.23384 4.32374 5.98314 5.62126C6.73244 6.91877 7.92201 7.90472 9.33603 8.40023C10.425 8.77815 11.5965 8.85145 12.724 8.61224C12.9024 8.57722 13.0871 8.59274 13.2572 8.65704C13.4272 8.72135 13.576 8.83188 13.6866 8.97618C13.7972 9.12048 13.8653 9.29282 13.8832 9.47375C13.9012 9.65469 13.8682 9.83703 13.788 10.0002C13.1711 11.1666 12.2484 12.1432 11.1189 12.8253C9.98937 13.5074 8.69553 13.8693 7.37603 13.8722ZM4.26803 1.15623C3.50295 1.59005 2.83773 2.18003 2.31561 2.8878C1.7935 3.59558 1.42619 4.40532 1.23755 5.26437C1.04891 6.12342 1.04318 7.01255 1.22072 7.87396C1.39825 8.73537 1.75509 9.54978 2.26803 10.2642C2.88627 11.1284 3.71419 11.8212 4.6739 12.2773C5.63361 12.7333 6.69358 12.9378 7.75407 12.8714C8.81457 12.805 9.84075 12.4699 10.7361 11.8977C11.6314 11.3254 12.3664 10.5348 12.872 9.60023C11.5854 9.85887 10.2532 9.77051 9.01203 9.34423C7.37435 8.77001 5.99601 7.62905 5.126 6.12744C4.25599 4.62583 3.95168 2.86259 4.26803 1.15623Z"
            fill="#1F2937" />
    </g>
    <defs>
        <clipPath id="clip0_2_405">
            <rect width="14" height="14" fill="white" transform="translate(0 0.000244141)" />
        </clipPath>
    </defs>
</svg>