<svg xmlns="http://www.w3.org/2000/svg" width="16" height="16" viewBox="0 0 16 16" fill="none">
    <path
        d="M6.58533 2.83394C6.79148 2.25067 7.34775 1.83398 8.00008 1.83398C8.65241 1.83398 9.20875 2.25067 9.41488 2.83394C9.50688 3.0943 9.79255 3.23076 10.0529 3.13874C10.3133 3.04671 10.4497 2.76105 10.3577 2.5007C10.0147 1.53038 9.08941 0.833984 8.00008 0.833984C6.91081 0.833984 5.98544 1.53038 5.64249 2.5007C5.55046 2.76105 5.68692 3.04671 5.94728 3.13874C6.20764 3.23076 6.4933 3.0943 6.58533 2.83394Z"
        fill="#F04438" />
    <path
        d="M1.83337 4C1.83337 3.72386 2.05723 3.5 2.33337 3.5H13.6668C13.9429 3.5 14.1668 3.72386 14.1668 4C14.1668 4.27614 13.9429 4.5 13.6668 4.5H2.33337C2.05723 4.5 1.83337 4.27614 1.83337 4Z"
        fill="#F04438" />
    <path
        d="M3.41134 5.16909C3.68687 5.15073 3.92512 5.3592 3.94349 5.63473L4.25012 10.2341C4.31002 11.1327 4.35271 11.7579 4.44642 12.2283C4.53732 12.6847 4.66421 12.9262 4.84648 13.0967C5.02876 13.2672 5.2782 13.3778 5.73953 13.4381C6.21513 13.5003 6.84183 13.5013 7.74237 13.5013H8.25797C9.1585 13.5013 9.78517 13.5003 10.2608 13.4381C10.7221 13.3778 10.9716 13.2672 11.1538 13.0967C11.3361 12.9262 11.463 12.6847 11.5539 12.2283C11.6476 11.7579 11.6903 11.1327 11.7502 10.2341L12.0568 5.63473C12.0752 5.3592 12.3134 5.15073 12.589 5.16909C12.8645 5.18746 13.073 5.42571 13.0546 5.70125L12.7456 10.3357C12.6886 11.1909 12.6426 11.8817 12.5346 12.4237C12.4224 12.9873 12.2314 13.458 11.837 13.8269C11.4426 14.1959 10.9602 14.3551 10.3905 14.4297C9.84243 14.5013 9.15017 14.5013 8.2931 14.5013H7.70723C6.85017 14.5013 6.15785 14.5013 5.60983 14.4297C5.04006 14.3551 4.55769 14.1959 4.1633 13.8269C3.7689 13.458 3.57795 12.9873 3.46569 12.4237C3.35771 11.8817 3.31167 11.1909 3.25467 10.3357L2.94571 5.70125C2.92733 5.42571 3.13581 5.18746 3.41134 5.16909Z"
        fill="#F04438" />
</svg>