<svg xmlns="http://www.w3.org/2000/svg" width="18" height="4" viewBox="0 0 18 4" fill="none">
    <path
        d="M9 0.199219C9.356 0.199219 9.70401 0.304787 10 0.502574C10.296 0.70036 10.5267 0.981481 10.663 1.31039C10.7992 1.6393 10.8349 2.00122 10.7654 2.35038C10.696 2.69955 10.5245 3.02028 10.2728 3.27201C10.0211 3.52374 9.70033 3.69518 9.35116 3.76463C9.002 3.83408 8.64007 3.79844 8.31117 3.6622C7.98226 3.52596 7.70114 3.29525 7.50335 2.99924C7.30557 2.70324 7.2 2.35522 7.2 1.99922C7.2 1.52183 7.38964 1.06399 7.72721 0.726426C8.06477 0.388861 8.52261 0.199219 9 0.199219ZM0 1.99922C0 2.35522 0.105568 2.70324 0.303355 2.99924C0.501141 3.29525 0.782263 3.52596 1.11117 3.6622C1.44008 3.79844 1.802 3.83408 2.15116 3.76463C2.50033 3.69518 2.82106 3.52374 3.07279 3.27201C3.32453 3.02028 3.49596 2.69955 3.56541 2.35038C3.63487 2.00122 3.59922 1.6393 3.46298 1.31039C3.32674 0.981481 3.09603 0.70036 2.80003 0.502574C2.50402 0.304787 2.15601 0.199219 1.8 0.199219C1.32261 0.199219 0.864773 0.388861 0.527208 0.726426C0.189642 1.06399 0 1.52183 0 1.99922ZM14.4 1.99922C14.4 2.35522 14.5056 2.70324 14.7034 2.99924C14.9011 3.29525 15.1823 3.52596 15.5112 3.6622C15.8401 3.79844 16.202 3.83408 16.5512 3.76463C16.9003 3.69518 17.2211 3.52374 17.4728 3.27201C17.7245 3.02028 17.896 2.69955 17.9654 2.35038C18.0349 2.00122 17.9992 1.6393 17.863 1.31039C17.7267 0.981481 17.496 0.70036 17.2 0.502574C16.904 0.304787 16.556 0.199219 16.2 0.199219C15.7226 0.199219 15.2648 0.388861 14.9272 0.726426C14.5896 1.06399 14.4 1.52183 14.4 1.99922Z"
        fill="#0BA5EC" />
</svg>