<svg xmlns="http://www.w3.org/2000/svg" width="20" height="20" viewBox="0 0 20 20" fill="none">
    <path
        d="M12.0581 6.27592C12.3022 6.52 12.6978 6.52 12.9419 6.27592C13.186 6.03185 13.186 5.63612 12.9419 5.39204L10.4419 2.89204C10.1978 2.64797 9.80216 2.64797 9.55808 2.89204L7.05806 5.39204C6.81398 5.63612 6.81398 6.03185 7.05806 6.27592C7.30213 6.52 7.69786 6.52 7.94194 6.27592L9.375 4.84287V11.6673C9.375 12.0125 9.65483 12.2923 10 12.2923C10.3452 12.2923 10.625 12.0125 10.625 11.6673V4.84287L12.0581 6.27592Z"
        fill="#1F2937" />
    <path
        d="M17.2918 10C17.2918 9.65483 17.012 9.375 16.6668 9.375C16.3217 9.375 16.0418 9.65483 16.0418 10C16.0418 13.3368 13.3369 16.0417 10.0002 16.0417C6.66344 16.0417 3.9585 13.3368 3.9585 10C3.9585 9.65483 3.67867 9.375 3.3335 9.375C2.98832 9.375 2.7085 9.65483 2.7085 10C2.7085 14.0271 5.97309 17.2917 10.0002 17.2917C14.0272 17.2917 17.2918 14.0271 17.2918 10Z"
        fill="#1F2937" />
</svg>