<svg xmlns="http://www.w3.org/2000/svg" width="16" height="16" viewBox="0 0 16 16" fill="none">
    <g clip-path="url(#clip0_2_667)">
        <path
            d="M14.6666 8.13593V9.14999C14.6666 11.7505 14.6666 13.0509 13.8856 13.8587C13.1046 14.6667 11.8474 14.6667 9.33331 14.6667H6.66665C4.15249 14.6667 2.89541 14.6667 2.11436 13.8587C1.33331 13.0509 1.33331 11.7505 1.33331 9.14999V8.13593C1.33331 6.61032 1.33331 5.84751 1.67945 5.21515C2.02558 4.5828 2.65795 4.19033 3.92267 3.40541L5.256 2.57791C6.59291 1.74819 7.26138 1.33333 7.99998 1.33333C8.73858 1.33333 9.40705 1.74819 10.744 2.57791L12.0773 3.40541C13.342 4.19033 13.9744 4.5828 14.3205 5.21515"
            stroke="#1F2937" stroke-width="1.2" stroke-linecap="round" />
        <path d="M10 12H6" stroke="#1F2937" stroke-width="1.2" stroke-linecap="round" />
    </g>
    <defs>
        <clipPath id="clip0_2_667">
            <rect width="16" height="16" fill="white" />
        </clipPath>
    </defs>
</svg>