<svg xmlns="http://www.w3.org/2000/svg" width="12" height="12" viewBox="0 0 12 12" fill="none">
    <g clip-path="url(#clip0_2_414)">
        <path
            d="M6 3.12537C6.2071 3.12537 6.375 3.29326 6.375 3.50037V6.50037C6.375 6.70747 6.2071 6.87537 6 6.87537C5.7929 6.87537 5.625 6.70747 5.625 6.50037V3.50037C5.625 3.29326 5.7929 3.12537 6 3.12537Z"
            fill="#6B7280" />
        <path
            d="M6 8.50037C6.27615 8.50037 6.5 8.27652 6.5 8.00037C6.5 7.72422 6.27615 7.50037 6 7.50037C5.72385 7.50037 5.5 7.72422 5.5 8.00037C5.5 8.27652 5.72385 8.50037 6 8.50037Z"
            fill="#6B7280" />
        <path fill-rule="evenodd" clip-rule="evenodd"
            d="M0.625 6.00037C0.625 3.03184 3.03147 0.625366 6 0.625366C8.96855 0.625366 11.375 3.03184 11.375 6.00037C11.375 8.96892 8.96855 11.3754 6 11.3754C3.03147 11.3754 0.625 8.96892 0.625 6.00037ZM6 1.37537C3.44568 1.37537 1.375 3.44605 1.375 6.00037C1.375 8.55467 3.44568 10.6254 6 10.6254C8.5543 10.6254 10.625 8.55467 10.625 6.00037C10.625 3.44605 8.5543 1.37537 6 1.37537Z"
            fill="#6B7280" />
    </g>
    <defs>
        <clipPath id="clip0_2_414">
            <rect width="12" height="12" fill="white" transform="translate(0 0.000366211)" />
        </clipPath>
    </defs>
</svg>