<svg xmlns="http://www.w3.org/2000/svg" width="16" height="16" viewBox="0 0 16 16" fill="none">
    <g clip-path="url(#clip0_2_591)">
        <path
            d="M14.6563 6.66665C14.6315 5.7926 14.5484 5.23535 14.2684 4.75981C13.8701 4.08347 13.1529 3.70709 11.7185 2.95433L10.3851 2.25463C9.21474 1.64042 8.62954 1.33331 8.00001 1.33331C7.37048 1.33331 6.78528 1.64042 5.61487 2.25463L4.28154 2.95433C2.8471 3.70709 2.12987 4.08347 1.73161 4.75981C1.33334 5.43615 1.33334 6.27776 1.33334 7.96098V8.03898C1.33334 9.72218 1.33334 10.5638 1.73161 11.2402C2.12987 11.9165 2.8471 12.2928 4.28154 13.0456L5.61487 13.7453C6.78528 14.3595 7.37048 14.6666 8.00001 14.6666C8.62954 14.6666 9.21474 14.3595 10.3851 13.7453L11.7185 13.0456C13.1529 12.2928 13.8701 11.9165 14.2684 11.2402C14.5484 10.7646 14.6315 10.2074 14.6563 9.33331"
            stroke="#1F2937" stroke-width="1.2" stroke-linecap="round" />
        <path
            d="M14 5L11.3333 6.33333M11.3333 6.33333C11.3333 6.33333 11.1302 6.43491 11 6.5C9.8284 7.0858 8 8 8 8M11.3333 6.33333V8.66667M11.3333 6.33333L5 3M8 8L2 5M8 8V14.3333"
            stroke="#1F2937" stroke-width="1.2" stroke-linecap="round" />
    </g>
    <defs>
        <clipPath id="clip0_2_591">
            <rect width="16" height="16" fill="white" />
        </clipPath>
    </defs>
</svg>