<svg xmlns="http://www.w3.org/2000/svg" width="16" height="16" viewBox="0 0 16 16" fill="none">
    <path
        d="M14 4.66665V4.24669C14 3.45135 14 3.05368 13.8947 2.73295C13.695 2.12477 13.2312 1.64729 12.6404 1.44172C12.3289 1.33331 11.9426 1.33331 11.17 1.33331H4.83001C4.05743 1.33331 3.67114 1.33331 3.35959 1.44172C2.76881 1.64729 2.30499 2.12477 2.1053 2.73295C2 3.05368 2 3.45135 2 4.24669V9.99998M14 7.33331V13.5828C14 14.1549 13.3433 14.4585 12.9279 14.0784C12.6839 13.855 12.3161 13.855 12.0721 14.0784L11.75 14.3731C11.3223 14.7645 10.6777 14.7645 10.25 14.3731C9.82227 13.9817 9.17773 13.9817 8.75 14.3731C8.32227 14.7645 7.67773 14.7645 7.25 14.3731C6.82227 13.9817 6.17773 13.9817 5.75 14.3731C5.32227 14.7645 4.67773 14.7645 4.25 14.3731L3.92793 14.0784C3.68389 13.855 3.31611 13.855 3.07207 14.0784C2.65667 14.4585 2 14.1549 2 13.5828V12.6666"
        stroke="#1F2937" stroke-width="1.2" stroke-linecap="round" />
    <path d="M6.33334 6.93331L7.28574 7.99998L9.66668 5.33331" stroke="#1F2937" stroke-width="1.2"
        stroke-linecap="round" stroke-linejoin="round" />
    <path d="M5 10.3333H6M11 10.3333H8" stroke="#1F2937" stroke-width="1.2" stroke-linecap="round" />
</svg>