<svg xmlns="http://www.w3.org/2000/svg" width="16" height="16" viewBox="0 0 16 16" fill="none">
    <g clip-path="url(#clip0_2_535)">
        <path fill-rule="evenodd" clip-rule="evenodd"
            d="M7.96534 0.833344H8.03468C8.63368 0.833324 9.13314 0.833311 9.52968 0.886618C9.94821 0.942891 10.3261 1.06667 10.6297 1.37032C10.9333 1.67396 11.0571 2.05183 11.1134 2.47036C11.1528 2.76342 11.1631 3.11274 11.1657 3.5169C11.5981 3.53077 11.9835 3.55605 12.326 3.6021C13.1076 3.70718 13.7403 3.9286 14.2392 4.4275C14.7381 4.92642 14.9595 5.55905 15.0646 6.34066C15.1667 7.10014 15.1667 8.07054 15.1667 9.29574V9.37094C15.1667 10.5961 15.1667 11.5665 15.0646 12.326C14.9595 13.1076 14.7381 13.7403 14.2392 14.2392C13.7403 14.7381 13.1076 14.9595 12.326 15.0646C11.5665 15.1667 10.5961 15.1667 9.37094 15.1667H6.62907C5.4039 15.1667 4.43347 15.1667 3.674 15.0646C2.89238 14.9595 2.25975 14.7381 1.76084 14.2392C1.26193 13.7403 1.04052 13.1076 0.935437 12.326C0.833324 11.5665 0.83333 10.5961 0.833344 9.37094V9.29574C0.83333 8.07054 0.833324 7.10014 0.935437 6.34066C1.04052 5.55905 1.26193 4.92642 1.76084 4.4275C2.25975 3.9286 2.89238 3.70718 3.674 3.6021C4.01651 3.55605 4.40193 3.53077 4.83428 3.5169C4.83694 3.11274 4.84722 2.76342 4.88662 2.47036C4.94289 2.05183 5.06667 1.67396 5.37032 1.37032C5.67396 1.06667 6.05183 0.942891 6.47036 0.886618C6.86688 0.833311 7.36634 0.833324 7.96534 0.833344ZM5.83454 3.5012C6.08663 3.5 6.3513 3.50001 6.62906 3.50001H9.37094C9.64874 3.50001 9.91341 3.5 10.1655 3.5012C10.1627 3.12098 10.1533 2.83418 10.1223 2.6036C10.0809 2.29596 10.0095 2.1643 9.92261 2.07742C9.83574 1.99054 9.70408 1.91906 9.39641 1.8777C9.07441 1.83441 8.64268 1.83334 8.00001 1.83334C7.35734 1.83334 6.92561 1.83441 6.6036 1.8777C6.29596 1.91906 6.1643 1.99054 6.07742 2.07742C5.99054 2.1643 5.91906 2.29596 5.8777 2.6036C5.8467 2.83418 5.83735 3.12098 5.83454 3.5012ZM3.80724 4.59318C3.13652 4.68336 2.75008 4.85248 2.46794 5.13462C2.1858 5.41675 2.01669 5.80318 1.92652 6.47391C1.8344 7.15901 1.83334 8.06214 1.83334 9.33334C1.83334 10.6045 1.8344 11.5077 1.92652 12.1928C2.01669 12.8635 2.1858 13.2499 2.46794 13.5321C2.75008 13.8142 3.13652 13.9833 3.80724 14.0735C4.49235 14.1656 5.39546 14.1667 6.66668 14.1667H9.33334C10.6045 14.1667 11.5077 14.1656 12.1928 14.0735C12.8635 13.9833 13.2499 13.8142 13.5321 13.5321C13.8142 13.2499 13.9833 12.8635 14.0735 12.1928C14.1656 11.5077 14.1667 10.6045 14.1667 9.33334C14.1667 8.06214 14.1656 7.15901 14.0735 6.47391C13.9833 5.80318 13.8142 5.41675 13.5321 5.13462C13.2499 4.85248 12.8635 4.68336 12.1928 4.59318C11.5077 4.50108 10.6045 4.50001 9.33334 4.50001H6.66668C5.39546 4.50001 4.49235 4.50108 3.80724 4.59318Z"
            fill="#1F2937" />
        <path
            d="M11.3333 6.00001C11.3333 6.3682 11.0349 6.66668 10.6667 6.66668C10.2985 6.66668 10 6.3682 10 6.00001C10 5.63182 10.2985 5.33334 10.6667 5.33334C11.0349 5.33334 11.3333 5.63182 11.3333 6.00001Z"
            fill="#1F2937" />
        <path
            d="M6.00002 6.00001C6.00002 6.3682 5.70155 6.66668 5.33335 6.66668C4.96517 6.66668 4.66669 6.3682 4.66669 6.00001C4.66669 5.63182 4.96517 5.33334 5.33335 5.33334C5.70155 5.33334 6.00002 5.63182 6.00002 6.00001Z"
            fill="#1F2937" />
    </g>
    <defs>
        <clipPath id="clip0_2_535">
            <rect width="16" height="16" fill="white" />
        </clipPath>
    </defs>
</svg>