<svg xmlns="http://www.w3.org/2000/svg" width="16" height="16" viewBox="0 0 16 16" fill="none">
    <g clip-path="url(#clip0_2_437)">
        <path
            d="M9.96358 0.833741C9.05191 0.833727 8.31698 0.833714 7.73904 0.911421C7.13898 0.992101 6.6337 1.16469 6.23242 1.56597C5.88246 1.91593 5.70564 2.34598 5.61282 2.85131C5.52262 3.34235 5.50537 3.94327 5.50135 4.66429C5.49982 4.94043 5.72242 5.16553 5.99856 5.16707C6.2747 5.16861 6.4998 4.94599 6.50134 4.66986C6.5054 3.94086 6.52433 3.42414 6.59636 3.03197C6.66577 2.6541 6.77724 2.43538 6.93951 2.27308C7.12404 2.08857 7.38311 1.96827 7.87224 1.90251C8.37584 1.8348 9.04324 1.83374 10.0002 1.83374H10.6668C11.6238 1.83374 12.2912 1.8348 12.7948 1.90251C13.284 1.96827 13.543 2.08857 13.7275 2.27308C13.912 2.45759 14.0323 2.71664 14.0981 3.20582C14.1658 3.70939 14.1668 4.3768 14.1668 5.33374V10.6671C14.1668 11.624 14.1658 12.2914 14.0981 12.795C14.0323 13.2842 13.912 13.5432 13.7275 13.7277C13.543 13.9123 13.284 14.0325 12.7948 14.0983C12.2912 14.166 11.6238 14.1671 10.6668 14.1671H10.0002C9.04324 14.1671 8.37584 14.166 7.87224 14.0983C7.38311 14.0325 7.12404 13.9123 6.93951 13.7277C6.77724 13.5654 6.66577 13.3467 6.59636 12.9689C6.52433 12.5767 6.5054 12.0599 6.50134 11.3309C6.4998 11.0548 6.2747 10.8322 5.99856 10.8337C5.72242 10.8353 5.49982 11.0604 5.50135 11.3365C5.50537 12.0575 5.52262 12.6585 5.61282 13.1495C5.70564 13.6548 5.88246 14.0849 6.23242 14.4349C6.6337 14.8361 7.13898 15.0087 7.73904 15.0894C8.31698 15.1671 9.05191 15.1671 9.96358 15.1671H10.7034C11.6152 15.1671 12.35 15.1671 12.928 15.0894C13.5281 15.0087 14.0333 14.8361 14.4346 14.4349C14.8359 14.0335 15.0085 13.5283 15.0892 12.9283C15.1669 12.3503 15.1668 11.6154 15.1668 10.7037V5.29716C15.1668 4.38543 15.1669 3.65055 15.0892 3.07257C15.0085 2.4725 14.8359 1.96725 14.4346 1.56597C14.0333 1.16469 13.5281 0.992101 12.928 0.911421C12.35 0.833714 11.6152 0.833727 10.7034 0.833741H9.96358Z"
            fill="#1F2937" />
        <path
            d="M10.6674 7.49975C10.9435 7.49975 11.1674 7.72361 11.1674 7.99975C11.1674 8.27588 10.9435 8.49975 10.6674 8.49975H2.68568L3.99274 9.62015C4.20241 9.79981 4.22668 10.1155 4.04701 10.3251C3.86728 10.5348 3.55161 10.5591 3.34194 10.3794L1.00861 8.37941C0.897812 8.28441 0.834012 8.14575 0.834012 7.99975C0.834012 7.85381 0.897812 7.71515 1.00861 7.62015L3.34194 5.62013C3.55161 5.44043 3.86728 5.46471 4.04701 5.67437C4.22668 5.88403 4.20241 6.19968 3.99274 6.37939L2.68568 7.49975H10.6674Z"
            fill="#1F2937" />
    </g>
    <defs>
        <clipPath id="clip0_2_437">
            <rect width="16" height="16" fill="white" transform="translate(0 0.000366211)" />
        </clipPath>
    </defs>
</svg>