<svg width="100" height="24" viewBox="0 0 100 24" fill="none" xmlns="http://www.w3.org/2000/svg">
    <path
        d="M40.2582 12.4638L40.3296 12.4518L42.1018 1.48663H45.5151L42.1258 18.8026H39.0098L36.4769 8.07533H36.4055L33.8841 18.8026H30.768L27.3547 1.48663H30.7915L32.5632 12.4752L32.6345 12.4872L35.12 1.48663H37.7602L40.2577 12.4632L40.2582 12.4638Z"
        fill="black" />
    <path
        d="M45.5147 12.25C45.5147 10.3155 45.9764 8.73979 46.9004 7.52289C47.8238 6.30599 49.1224 5.69727 50.795 5.69727C52.4676 5.69727 53.7602 6.30599 54.6956 7.52289C55.631 8.73979 56.0987 10.316 56.0987 12.25V12.5233C56.0987 14.4579 55.6327 16.0298 54.7016 17.2385C53.77 18.4478 52.4758 19.0521 50.8184 19.0521C49.161 19.0521 47.8336 18.4499 46.9058 17.2445C45.978 16.0396 45.5142 14.4655 45.5142 12.5233V12.25H45.5147ZM48.8567 12.5233C48.8567 13.7206 49.0053 14.6718 49.3026 15.3775C49.5999 16.0831 50.1052 16.4359 50.819 16.4359C51.5328 16.4359 51.9923 16.0831 52.2934 15.3775C52.5945 14.6718 52.7453 13.7206 52.7453 12.5233V12.25C52.7453 11.0685 52.5945 10.1195 52.2934 9.40187C51.9918 8.68426 51.4925 8.32545 50.795 8.32545C50.0975 8.32545 49.5999 8.68643 49.3026 9.40786C49.0053 10.1293 48.8567 11.0767 48.8567 12.25V12.5233Z"
        fill="black" />
    <path
        d="M63.1082 8.83652L61.9665 8.80058C61.5935 8.80058 61.2826 8.89968 61.0327 9.09787C60.7828 9.29605 60.5906 9.57374 60.4561 9.93037V18.802H57.1141V5.93447H60.2416L60.3723 7.75411C60.6178 7.104 60.9331 6.59873 61.3175 6.23774C61.7019 5.8773 62.144 5.69653 62.6433 5.69653C62.7935 5.69653 62.9324 5.71069 63.0593 5.73791C63.1861 5.76568 63.3168 5.79944 63.4518 5.83919L63.1072 8.83598L63.1082 8.83652Z"
        fill="black" />
    <path
        d="M68.428 13.403H67.8215V18.802H64.4675V0.249588H67.8215V10.8102H68.3687L70.6996 5.93445H74.5648L71.0682 11.738L75.0881 18.802H71.2468L68.428 13.403Z"
        fill="black" />
    <path d="M76.1026 5.93457V18.8027H79.456V5.93457H76.1026Z" fill="black" />
    <path d="M79.456 0.25032H76.1026V2.80717H79.456V0.25032Z" fill="black" />
    <path
        d="M82.0764 18.8029V8.32558H80.4707V5.93534H82.0764V4.48431C82.0764 3.04962 82.451 1.94325 83.2001 1.16629C83.9493 0.389321 85.0056 0.000564575 86.3695 0.000564575C86.6314 0.000564575 86.8928 0.0223442 87.1547 0.0659022C87.4166 0.10946 87.7177 0.170987 88.0585 0.25048L87.7971 2.77194C87.6305 2.7322 87.4721 2.70062 87.3213 2.67666C87.1705 2.6527 86.9924 2.64072 86.7861 2.64072C86.3418 2.64072 86.0053 2.80134 85.775 3.12258C85.5447 3.44382 85.4303 3.89791 85.4303 4.48431V5.93534H87.4999V8.32558H85.4303V18.8029H82.0764Z"
        fill="black" />
    <path
        d="M94.294 13.6057V13.6411H94.3654L96.2917 5.93457H99.895L95.4592 20.741C95.1342 21.6688 94.698 22.4436 94.1508 23.0659C93.6036 23.6883 92.7673 23.9997 91.6413 23.9997C91.3718 23.9997 91.1317 23.9779 90.9221 23.9344C90.7119 23.8908 90.4168 23.8211 90.0362 23.7264L90.4408 21.2648C90.5279 21.2806 90.6134 21.2964 90.6967 21.3122C90.78 21.328 90.8611 21.3361 90.9406 21.3361C91.4323 21.3361 91.8069 21.2011 92.0644 20.9316C92.3219 20.6621 92.5103 20.3092 92.6296 19.8731L92.9508 18.886L89.0736 5.93512H92.6769L94.2946 13.6057H94.294Z"
        fill="black" />
    <path
        d="M22.6718 16.0185L17.2003 20.0421C16.7963 20.3389 16.2976 20.3389 15.8925 20.0421L11.3352 16.6914L6.77963 20.0421C6.37563 20.3389 5.87689 20.3389 5.4718 20.0421L0.00146484 16.0185L11.3352 7.68527L22.6718 16.0185Z"
        fill="url(#paint0_linear_2_1226)" />
    <path
        d="M1.0492 0.121158L11.3354 7.68445L0.00163502 16.0176H0V0.891588C0 0.206094 0.582588 -0.222406 1.04866 0.121158H1.0492Z"
        fill="url(#paint1_linear_2_1226)" />
    <path
        d="M22.6714 0.89232V16.0184L11.3348 7.68519L21.6227 0.12189C22.0888 -0.221673 22.6714 0.206826 22.6714 0.89232Z"
        fill="url(#paint2_linear_2_1226)" />
    <defs>
        <linearGradient id="paint0_linear_2_1226" x1="10.8545" y1="7.20015" x2="11.5705"
            y2="20.2991" gradientUnits="userSpaceOnUse">
            <stop stop-color="#36BFFA" />
            <stop offset="1" stop-color="#0086C9" />
        </linearGradient>
        <linearGradient id="paint1_linear_2_1226" x1="5.44311" y1="-0.696643" x2="5.73114"
            y2="15.3659" gradientUnits="userSpaceOnUse">
            <stop stop-color="#36BFFA" />
            <stop offset="1" stop-color="#0086C9" />
        </linearGradient>
        <linearGradient id="paint2_linear_2_1226" x1="16.9081" y1="-1.00626" x2="17.1961"
            y2="15.0498" gradientUnits="userSpaceOnUse">
            <stop stop-color="#36BFFA" />
            <stop offset="1" stop-color="#0086C9" />
        </linearGradient>
    </defs>
</svg>