<svg xmlns="http://www.w3.org/2000/svg" width="16" height="16" viewBox="0 0 16 16" fill="none">
  <path fill-rule="evenodd" clip-rule="evenodd"
    d="M6.62909 2.16699H9.37097C10.5962 2.16698 11.5666 2.16697 12.326 2.26909C13.1076 2.37417 13.7403 2.59558 14.2392 3.09449C14.6912 3.54654 14.916 4.10908 15.0323 4.79441C15.1172 5.29471 15.1482 5.88671 15.1597 6.58324C15.1643 6.61047 15.1667 6.63845 15.1667 6.66699C15.1667 6.69053 15.1651 6.71366 15.1619 6.73633C15.1643 6.92726 15.1655 7.12579 15.1661 7.33219C15.1669 7.60833 14.9437 7.83286 14.6676 7.83366C14.3914 7.83446 14.1669 7.61126 14.1661 7.33513C14.1659 7.27819 14.1657 7.22219 14.1654 7.16699H1.8347C1.83343 7.42593 1.83337 7.70306 1.83337 8.00033C1.83337 9.27153 1.83443 10.1747 1.92655 10.8598C2.01672 11.5305 2.18583 11.9169 2.46797 12.1991C2.75011 12.4812 3.13655 12.6503 3.80727 12.7405C4.49238 12.8326 5.39549 12.8337 6.66671 12.8337H7.66671C7.94284 12.8337 8.16671 13.0575 8.16671 13.3337C8.16671 13.6098 7.94284 13.8337 7.66671 13.8337H6.6291C5.40393 13.8337 4.4335 13.8337 3.67403 13.7316C2.89241 13.6265 2.25978 13.4051 1.76087 12.9062C1.26196 12.4073 1.04055 11.7746 0.935468 10.993C0.833354 10.2335 0.833361 9.26313 0.833374 8.03793V7.96273C0.833368 7.52153 0.833368 7.11339 0.838135 6.73626C0.834995 6.71359 0.833374 6.69046 0.833374 6.66699C0.833374 6.63843 0.835768 6.61044 0.840368 6.58319C0.850468 5.9784 0.875154 5.45623 0.935468 5.00765C1.04055 4.22603 1.26196 3.5934 1.76087 3.09449C2.25978 2.59558 2.89241 2.37417 3.67403 2.26909C4.4335 2.16697 5.40392 2.16698 6.62909 2.16699ZM1.85075 6.16699H14.1492C14.1333 5.69045 14.1032 5.29619 14.0464 4.96169C13.9512 4.40044 13.7888 4.05827 13.5321 3.80159C13.25 3.51945 12.8635 3.35034 12.1928 3.26017C11.5077 3.16805 10.6046 3.16699 9.33337 3.16699H6.66671C5.39549 3.16699 4.49238 3.16805 3.80727 3.26017C3.13655 3.35034 2.75011 3.51945 2.46797 3.80159C2.18583 4.08373 2.01672 4.47017 1.92655 5.14089C1.88662 5.43789 1.8638 5.77584 1.85075 6.16699ZM10.3334 8.83366C10.6095 8.83366 10.8334 9.05753 10.8334 9.33366V12.1265L11.3132 11.6468C11.5084 11.4515 11.825 11.4515 12.0202 11.6468C12.2155 11.8421 12.2155 12.1586 12.0202 12.3539L10.6869 13.6872C10.4916 13.8825 10.1751 13.8825 9.97984 13.6872L8.64651 12.3539C8.45124 12.1586 8.45124 11.8421 8.64651 11.6468C8.84177 11.4515 9.15831 11.4515 9.35357 11.6468L9.83337 12.1265V9.33366C9.83337 9.05753 10.0572 8.83366 10.3334 8.83366ZM12.9798 8.98013C13.1751 8.78486 13.4916 8.78486 13.6869 8.98013L15.0202 10.3135C15.2155 10.5087 15.2155 10.8253 15.0202 11.0205C14.825 11.2158 14.5084 11.2158 14.3132 11.0205L13.8334 10.5408V13.3337C13.8334 13.6098 13.6095 13.8337 13.3334 13.8337C13.0572 13.8337 12.8334 13.6098 12.8334 13.3337V10.5408L12.3536 11.0205C12.1583 11.2158 11.8418 11.2158 11.6465 11.0205C11.4512 10.8253 11.4512 10.5087 11.6465 10.3135L12.9798 8.98013ZM3.50004 10.667C3.50004 10.3909 3.7239 10.167 4.00004 10.167H6.66671C6.94284 10.167 7.16671 10.3909 7.16671 10.667C7.16671 10.9431 6.94284 11.167 6.66671 11.167H4.00004C3.7239 11.167 3.50004 10.9431 3.50004 10.667Z"
    fill="#1F2937" />
</svg>