<svg xmlns="http://www.w3.org/2000/svg" width="24" height="24" viewBox="0 0 24 24" fill="none">
    <path
        d="M17 12C19.7614 12 22 9.76142 22 7C22 4.23858 19.7614 2 17 2C14.2386 2 12 4.23858 12 7C12 7.79984 12.1878 8.55582 12.5217 9.22624C12.6105 9.4044 12.64 9.60803 12.5886 9.80031L12.2908 10.9133C12.1615 11.3965 12.6035 11.8385 13.0867 11.7092L14.1997 11.4114C14.392 11.36 14.5956 11.3895 14.7738 11.4783C15.4442 11.8122 16.2002 12 17 12Z"
        stroke="#374151" stroke-width="1.5" />
    <path
        d="M14.6445 16.5435L15.1 16.064L14.0124 15.031L13.5569 15.5105L14.6445 16.5435ZM16.5987 15.8621L18.5092 16.9618L19.2575 15.6618L17.347 14.5621L16.5987 15.8621ZM18.8779 19.2417L17.4573 20.7373L18.5449 21.7703L19.9655 20.2747L18.8779 19.2417ZM16.6026 21.2165C15.1676 21.3582 11.4233 21.2373 7.35918 16.9585L6.27161 17.9915C10.7009 22.6548 14.9261 22.8893 16.7499 22.7093L16.6026 21.2165ZM7.35918 16.9585C3.48306 12.8776 2.83289 9.43533 2.75185 7.92551L1.25401 8.0059C1.35326 9.85513 2.13843 13.6401 6.27161 17.9915L7.35918 16.9585ZM8.73453 10.3214L9.02134 10.0194L7.93375 8.98637L7.64694 9.28833L8.73453 10.3214ZM9.24668 6.25989L7.98568 4.4764L6.76089 5.34237L8.02188 7.12585L9.24668 6.25989ZM3.71769 4.0919L2.1481 5.74439L3.23568 6.77742L4.80528 5.12493L3.71769 4.0919ZM8.19073 9.80484C7.64694 9.28833 7.64626 9.28906 7.64556 9.28979C7.64532 9.29005 7.64462 9.29079 7.64415 9.29129C7.6432 9.29231 7.64222 9.29334 7.64124 9.2944C7.63928 9.29652 7.63723 9.29873 7.63513 9.30104C7.63094 9.30565 7.62649 9.31064 7.62181 9.31602C7.61246 9.32678 7.60218 9.33908 7.59119 9.35297C7.56921 9.38075 7.54434 9.41489 7.51825 9.45565C7.46594 9.53741 7.4092 9.64508 7.36116 9.7801C7.26345 10.0547 7.21021 10.4183 7.27674 10.8724C7.40745 11.7645 7.99202 12.9642 9.51937 14.5722L10.6069 13.5392C9.1793 12.0361 8.82765 11.1104 8.7609 10.6549C8.7287 10.4352 8.76141 10.3194 8.77435 10.283C8.78162 10.2626 8.78638 10.2569 8.78172 10.2642C8.77947 10.2677 8.77497 10.2743 8.76741 10.2839C8.76362 10.2886 8.75908 10.2942 8.75363 10.3004C8.75092 10.3036 8.74796 10.3069 8.74479 10.3104C8.7432 10.3121 8.74155 10.3139 8.73984 10.3157C8.73899 10.3167 8.73812 10.3176 8.73723 10.3185C8.73679 10.319 8.73611 10.3197 8.73589 10.32C8.73521 10.3207 8.73453 10.3214 8.19073 9.80484ZM9.51937 14.5722C11.0422 16.1755 12.1923 16.8058 13.0698 16.9483C13.5201 17.0214 13.8846 16.963 14.1606 16.8542C14.2955 16.801 14.4022 16.7385 14.4823 16.6817C14.5223 16.6533 14.5556 16.6264 14.5824 16.6029C14.5959 16.5911 14.6077 16.5801 14.618 16.5701C14.6232 16.5652 14.628 16.5604 14.6324 16.556C14.6346 16.5538 14.6367 16.5516 14.6387 16.5495C14.6397 16.5485 14.6407 16.5475 14.6417 16.5465C14.6422 16.546 14.6429 16.5452 14.6431 16.545C14.6438 16.5442 14.6445 16.5435 14.1007 16.027C13.5569 15.5105 13.5576 15.5098 13.5583 15.5091C13.5585 15.5088 13.5592 15.5081 13.5596 15.5076C13.5605 15.5067 13.5614 15.5058 13.5623 15.5049C13.5641 15.5031 13.5658 15.5013 13.5674 15.4996C13.5708 15.4963 13.574 15.4931 13.577 15.4902C13.583 15.4844 13.5885 15.4794 13.5933 15.4752C13.6028 15.4668 13.6099 15.4614 13.6145 15.4582C13.6239 15.4515 13.6229 15.4538 13.6102 15.4588C13.5909 15.4664 13.5 15.4985 13.3103 15.4677C12.9077 15.4023 12.0391 15.047 10.6069 13.5392L9.51937 14.5722ZM7.98568 4.4764C6.9721 3.04282 4.94387 2.80096 3.71769 4.0919L4.80528 5.12493C5.32812 4.57448 6.24854 4.61772 6.76089 5.34237L7.98568 4.4764ZM2.75185 7.92551C2.73042 7.52621 2.90429 7.12631 3.23568 6.77742L2.1481 5.74439C1.61225 6.30854 1.20497 7.09223 1.25401 8.0059L2.75185 7.92551ZM17.4573 20.7373C17.1783 21.0311 16.8864 21.1885 16.6026 21.2165L16.7499 22.7093C17.497 22.6355 18.1016 22.2371 18.5449 21.7703L17.4573 20.7373ZM9.02134 10.0194C9.98892 9.00072 10.0574 7.40655 9.24668 6.25989L8.02188 7.12585C8.44402 7.72292 8.37929 8.5173 7.93375 8.98637L9.02134 10.0194ZM18.5092 16.9618C19.33 17.4343 19.4907 18.5966 18.8779 19.2417L19.9655 20.2747C21.2704 18.9008 20.8904 16.6017 19.2575 15.6618L18.5092 16.9618ZM15.1 16.064C15.4854 15.6582 16.086 15.567 16.5987 15.8621L17.347 14.5621C16.2485 13.9298 14.8861 14.1111 14.0124 15.031L15.1 16.064Z"
        fill="#374151" />
</svg>