<svg xmlns="http://www.w3.org/2000/svg" width="16" height="16" viewBox="0 0 16 16" fill="none">
    <path
        d="M9.33331 14.6667H6.66665C4.15249 14.6667 2.89541 14.6667 2.11436 13.8856C1.33331 13.1046 1.33331 11.8475 1.33331 9.33332V7.99999C1.33331 5.48583 1.33331 4.22876 2.11436 3.4477C2.89541 2.66666 4.15249 2.66666 6.66665 2.66666H9.33331C11.8474 2.66666 13.1046 2.66666 13.8856 3.4477C14.6666 4.22876 14.6666 5.48583 14.6666 7.99999V9.33332C14.6666 11.8475 14.6666 13.1046 13.8856 13.8856C13.4501 14.3211 12.8667 14.5137 12 14.599"
        stroke="#1F2937" stroke-width="1.2" stroke-linecap="round" />
    <path d="M4.66663 2.66666V1.66666" stroke="#1F2937" stroke-width="1.2" stroke-linecap="round" />
    <path d="M11.3333 2.66666V1.66666" stroke="#1F2937" stroke-width="1.2" stroke-linecap="round" />
    <path d="M14.3333 6H11.0833H7.16665M1.33331 6H3.91665" stroke="#1F2937" stroke-width="1.2"
        stroke-linecap="round" />
    <path
        d="M12 11.3333C12 11.7015 11.7015 12 11.3333 12C10.9651 12 10.6666 11.7015 10.6666 11.3333C10.6666 10.9651 10.9651 10.6667 11.3333 10.6667C11.7015 10.6667 12 10.9651 12 11.3333Z"
        fill="#1F2937" />
    <path
        d="M12 8.66667C12 9.03487 11.7015 9.33333 11.3333 9.33333C10.9651 9.33333 10.6666 9.03487 10.6666 8.66667C10.6666 8.29847 10.9651 8 11.3333 8C11.7015 8 12 8.29847 12 8.66667Z"
        fill="#1F2937" />
    <path
        d="M8.66665 11.3333C8.66665 11.7015 8.36818 12 7.99998 12C7.63178 12 7.33331 11.7015 7.33331 11.3333C7.33331 10.9651 7.63178 10.6667 7.99998 10.6667C8.36818 10.6667 8.66665 10.9651 8.66665 11.3333Z"
        fill="#1F2937" />
    <path
        d="M8.66665 8.66667C8.66665 9.03487 8.36818 9.33333 7.99998 9.33333C7.63178 9.33333 7.33331 9.03487 7.33331 8.66667C7.33331 8.29847 7.63178 8 7.99998 8C8.36818 8 8.66665 8.29847 8.66665 8.66667Z"
        fill="#1F2937" />
    <path
        d="M5.33333 11.3333C5.33333 11.7015 5.03485 12 4.66667 12C4.29848 12 4 11.7015 4 11.3333C4 10.9651 4.29848 10.6667 4.66667 10.6667C5.03485 10.6667 5.33333 10.9651 5.33333 11.3333Z"
        fill="#1F2937" />
    <path
        d="M5.33333 8.66667C5.33333 9.03487 5.03485 9.33333 4.66667 9.33333C4.29848 9.33333 4 9.03487 4 8.66667C4 8.29847 4.29848 8 4.66667 8C5.03485 8 5.33333 8.29847 5.33333 8.66667Z"
        fill="#1F2937" />
</svg>