<svg xmlns="http://www.w3.org/2000/svg" width="16" height="16" viewBox="0 0 16 16" fill="none">
    <path
        d="M14 7.99998C14 11.1426 14 12.714 13.1213 13.6903C12.2427 14.6666 10.8284 14.6666 8 14.6666C5.17157 14.6666 3.75736 14.6666 2.87868 13.6903C2 12.714 2 11.1426 2 7.99998C2 4.85728 2 3.28593 2.87868 2.30963C3.75736 1.33331 5.17157 1.33331 8 1.33331C10.8284 1.33331 12.2427 1.33331 13.1213 2.30963C13.7055 2.95879 13.9013 3.87101 13.9669 5.33331"
        stroke="#1F2937" stroke-width="1.2" stroke-linecap="round" />
    <path
        d="M4.66666 5.33333C4.66666 5.02334 4.66666 4.86835 4.70073 4.74118C4.7932 4.39609 5.06274 4.12654 5.40784 4.03407C5.535 4 5.69 4 5.99999 4H9.99999C10.31 4 10.465 4 10.5921 4.03407C10.9373 4.12654 11.2068 4.39609 11.2993 4.74118C11.3333 4.86835 11.3333 5.02334 11.3333 5.33333C11.3333 5.64333 11.3333 5.79832 11.2993 5.92549C11.2068 6.27058 10.9373 6.54013 10.5921 6.63259C10.465 6.66667 10.31 6.66667 9.99999 6.66667H5.99999C5.69 6.66667 5.535 6.66667 5.40784 6.63259C5.06274 6.54013 4.7932 6.27058 4.70073 5.92549C4.66666 5.79832 4.66666 5.64333 4.66666 5.33333Z"
        stroke="#1F2937" stroke-width="1.2" />
    <path
        d="M5.33332 9.33333C5.70151 9.33333 5.99999 9.03486 5.99999 8.66667C5.99999 8.29848 5.70151 8 5.33332 8C4.96513 8 4.66666 8.29848 4.66666 8.66667C4.66666 9.03486 4.96513 9.33333 5.33332 9.33333Z"
        fill="#1F2937" />
    <path
        d="M5.33332 12C5.70151 12 5.99999 11.7015 5.99999 11.3333C5.99999 10.9651 5.70151 10.6666 5.33332 10.6666C4.96513 10.6666 4.66666 10.9651 4.66666 11.3333C4.66666 11.7015 4.96513 12 5.33332 12Z"
        fill="#1F2937" />
    <path
        d="M8.00001 9.33333C8.3682 9.33333 8.66668 9.03486 8.66668 8.66667C8.66668 8.29848 8.3682 8 8.00001 8C7.63182 8 7.33334 8.29848 7.33334 8.66667C7.33334 9.03486 7.63182 9.33333 8.00001 9.33333Z"
        fill="#1F2937" />
    <path
        d="M8.00001 12C8.3682 12 8.66668 11.7015 8.66668 11.3333C8.66668 10.9651 8.3682 10.6666 8.00001 10.6666C7.63182 10.6666 7.33334 10.9651 7.33334 11.3333C7.33334 11.7015 7.63182 12 8.00001 12Z"
        fill="#1F2937" />
    <path
        d="M10.6667 9.33333C11.0349 9.33333 11.3333 9.03486 11.3333 8.66667C11.3333 8.29848 11.0349 8 10.6667 8C10.2985 8 10 8.29848 10 8.66667C10 9.03486 10.2985 9.33333 10.6667 9.33333Z"
        fill="#1F2937" />
    <path
        d="M10.6667 12C11.0349 12 11.3333 11.7015 11.3333 11.3333C11.3333 10.9651 11.0349 10.6666 10.6667 10.6666C10.2985 10.6666 10 10.9651 10 11.3333C10 11.7015 10.2985 12 10.6667 12Z"
        fill="#1F2937" />
</svg>