<svg xmlns="http://www.w3.org/2000/svg" width="16" height="16" viewBox="0 0 16 16" fill="none">
    <path fill-rule="evenodd" clip-rule="evenodd"
        d="M7.29573 0.833344H8.70427C9.92947 0.83333 10.8999 0.833324 11.6593 0.935437C12.4409 1.04052 13.0736 1.26193 13.5725 1.76084C13.7677 1.9561 13.7677 2.27268 13.5725 2.46794C13.3773 2.66321 13.0607 2.66321 12.8654 2.46794C12.5833 2.1858 12.1968 2.01669 11.5261 1.92652C10.841 1.8344 9.93787 1.83334 8.66667 1.83334H7.33333C6.06212 1.83334 5.15901 1.8344 4.4739 1.92652C3.80317 2.01669 3.41674 2.1858 3.1346 2.46794C2.85246 2.75008 2.68335 3.13652 2.59317 3.80724C2.50106 4.49235 2.5 5.39546 2.5 6.66668V9.33334C2.5 10.6045 2.50106 11.5077 2.59317 12.1928C2.68335 12.8635 2.85246 13.2499 3.1346 13.5321C3.41674 13.8142 3.80317 13.9833 4.4739 14.0735C5.15901 14.1656 6.06212 14.1667 7.33333 14.1667H8.66667C9.93787 14.1667 10.841 14.1656 11.5261 14.0735C12.1968 13.9833 12.5833 13.8142 12.8654 13.5321C13.3293 13.0681 13.4699 12.3472 13.4943 10.6595C13.4983 10.3833 13.7253 10.1627 14.0015 10.1667C14.2775 10.1707 14.4981 10.3978 14.4941 10.6739C14.4707 12.2922 14.366 13.4457 13.5725 14.2392C13.0736 14.7381 12.4409 14.9595 11.6593 15.0646C10.8999 15.1667 9.92947 15.1667 8.70427 15.1667H7.29573C6.07055 15.1667 5.10013 15.1667 4.34065 15.0646C3.55904 14.9595 2.92641 14.7381 2.42749 14.2392C1.92859 13.7403 1.70717 13.1076 1.60209 12.326C1.49998 11.5665 1.49999 10.5961 1.5 9.37094V6.62906C1.49999 5.40389 1.49998 4.43347 1.60209 3.674C1.70717 2.89238 1.92859 2.25975 2.42749 1.76084C2.92641 1.26193 3.55904 1.04052 4.34065 0.935437C5.10013 0.833324 6.07055 0.83333 7.29573 0.833344ZM12.0754 4.69705C12.7826 3.98988 13.9291 3.98988 14.6363 4.69705C15.3435 5.40421 15.3435 6.55075 14.6363 7.25794L11.4661 10.4281C11.2936 10.6007 11.1769 10.7173 11.0462 10.8193C10.8925 10.9392 10.7261 11.042 10.5501 11.1259C10.4005 11.1972 10.2439 11.2494 10.0125 11.3265L8.6234 11.7895C8.31673 11.8917 7.9786 11.8119 7.75 11.5833C7.5214 11.3547 7.4416 11.0166 7.5438 10.7099L7.99753 9.34881C8.00067 9.33941 8.00373 9.33008 8.0068 9.32088C8.08393 9.08948 8.13613 8.93288 8.2074 8.78321C8.29133 8.60721 8.39413 8.44088 8.51407 8.28714C8.616 8.15641 8.73267 8.03974 8.9052 7.86728C8.91207 7.86041 8.919 7.85348 8.92607 7.84641L12.0754 4.69705ZM13.9292 5.40416C13.6125 5.08752 13.0992 5.08752 12.7825 5.40416L12.6613 5.52534C12.6679 5.54767 12.6755 5.57141 12.6841 5.59636C12.7468 5.77711 12.8659 6.01619 13.0915 6.24185C13.3171 6.46751 13.5562 6.58651 13.737 6.64922C13.7619 6.65788 13.7857 6.66542 13.808 6.67201L13.9292 6.55081C14.2458 6.23417 14.2458 5.7208 13.9292 5.40416ZM13.0443 7.43574C12.8323 7.32441 12.6035 7.16808 12.3844 6.94894C12.1653 6.72981 12.0089 6.50098 11.8976 6.28906L9.63313 8.55354C9.43247 8.75428 9.362 8.82588 9.30253 8.90214C9.22733 8.99861 9.1628 9.10301 9.11013 9.21348C9.06853 9.30074 9.03593 9.39574 8.9462 9.66508L8.67933 10.4657L8.86767 10.654L9.66827 10.3871C9.9376 10.2974 10.0326 10.2648 10.1199 10.2232C10.2303 10.1705 10.3347 10.106 10.4312 10.0308C10.5075 9.97134 10.5791 9.90088 10.7798 9.70021L13.0443 7.43574ZM4.83333 6.00001C4.83333 5.72387 5.05719 5.50001 5.33333 5.50001H9.66667C9.9428 5.50001 10.1667 5.72387 10.1667 6.00001C10.1667 6.27615 9.9428 6.50001 9.66667 6.50001H5.33333C5.05719 6.50001 4.83333 6.27615 4.83333 6.00001ZM4.83333 8.66668C4.83333 8.39054 5.05719 8.16668 5.33333 8.16668H7C7.27613 8.16668 7.5 8.39054 7.5 8.66668C7.5 8.94281 7.27613 9.16668 7 9.16668H5.33333C5.05719 9.16668 4.83333 8.94281 4.83333 8.66668ZM4.83333 11.3333C4.83333 11.0572 5.05719 10.8333 5.33333 10.8333H6.33333C6.60947 10.8333 6.83333 11.0572 6.83333 11.3333C6.83333 11.6095 6.60947 11.8333 6.33333 11.8333H5.33333C5.05719 11.8333 4.83333 11.6095 4.83333 11.3333Z"
        fill="#1F2937" />
</svg>