<svg xmlns="http://www.w3.org/2000/svg" width="16" height="16" viewBox="0 0 16 16" fill="none">
    <path d="M5.33334 7H8.66668" stroke="#1F2937" stroke-width="1.2" stroke-linecap="round"
        stroke-linejoin="round" />
    <path d="M5.33334 9H8.00001" stroke="#1F2937" stroke-width="1.2" stroke-linecap="round"
        stroke-linejoin="round" />
    <path
        d="M10 5.33335C9.58213 4.91475 9.06273 4.66669 8.49987 4.66669C7.1192 4.66669 6 6.15907 6 8.00002C6 9.84095 7.1192 11.3334 8.49987 11.3334C9.06273 11.3334 9.58213 11.0853 10 10.6667"
        stroke="#1F2937" stroke-width="1.2" stroke-linecap="round" />
    <path
        d="M2 8C2 3.059 3.059 2 8 2C12.941 2 14 3.059 14 8C14 12.941 12.941 14 8 14C3.059 14 2 12.941 2 8Z"
        stroke="#1F2937" stroke-width="1.2" />
</svg>