<svg xmlns="http://www.w3.org/2000/svg" width="16" height="16" viewBox="0 0 16 16" fill="none">
    <path d="M8.00025 2V6.79998M8.00025 6.79998L9.80024 4.99999M8.00025 6.79998L6.20026 4.99999"
        stroke="#1C274C" stroke-width="1.1" stroke-linecap="round" stroke-linejoin="round" />
    <path
        d="M2 8.60013H3.89615C4.43925 8.60013 4.7108 8.60013 4.94949 8.70993C5.18819 8.81967 5.36491 9.02589 5.71836 9.4382L6.08161 9.86204C6.43505 10.2744 6.61177 10.4806 6.8505 10.5903C7.08917 10.7001 7.36073 10.7001 7.90379 10.7001H8.09615C8.63921 10.7001 8.91077 10.7001 9.14944 10.5903C9.38818 10.4806 9.56488 10.2744 9.91834 9.86204L10.2816 9.4382C10.635 9.02589 10.8117 8.81967 11.0505 8.70993C11.2892 8.60013 11.5607 8.60013 12.1038 8.60013H13.9999"
        stroke="#1C274C" stroke-width="1.1" stroke-linecap="round" />
    <path
        d="M13.9999 7.99988C13.9999 10.8283 13.9999 12.2425 13.1212 13.1212C12.2426 13.9999 10.8284 13.9999 7.99997 13.9999C5.17155 13.9999 3.75735 13.9999 2.87868 13.1212C2 12.2425 2 10.8283 2 7.99988C2 5.17146 2 3.75725 2.87868 2.87858C3.36856 2.3887 4.02491 2.17193 4.99998 2.07602M11 2.07602C11.975 2.17193 12.6314 2.3887 13.1212 2.87858C13.7055 3.46282 13.9013 4.28377 13.9669 5.59983"
        stroke="#1C274C" stroke-width="1.1" stroke-linecap="round" />
</svg>