<svg xmlns="http://www.w3.org/2000/svg" width="16" height="16" viewBox="0 0 16 16" fill="none">
    <path
        d="M2.66666 7.66665V5.99998M13.3333 7.66665V6.23227C13.3333 4.91608 13.3333 4.25799 12.9229 3.83023C12.8852 3.79088 12.8453 3.75343 12.8033 3.71805C12.347 3.33331 11.6451 3.33331 10.2411 3.33331H10.0418C9.42652 3.33331 9.11886 3.33331 8.83219 3.2567C8.67466 3.21461 8.52292 3.15567 8.37979 3.08103C8.11926 2.94515 7.90172 2.7412 7.46666 2.33331L7.17319 2.05819C7.02739 1.92147 6.95446 1.85312 6.87786 1.79357C6.54747 1.53683 6.1422 1.37945 5.71496 1.342C5.61586 1.33331 5.51275 1.33331 5.30652 1.33331C4.83584 1.33331 4.6005 1.33331 4.40446 1.36799C3.54149 1.52063 2.86646 2.15347 2.70364 2.96251C2.68314 3.06436 2.67401 3.17753 2.66993 3.33331C2.66666 3.45861 2.66666 3.61148 2.66666 3.80819"
        stroke="#1F2937" stroke-width="1.2" stroke-linecap="round" />
    <path d="M6.66666 11.3333H9.33332" stroke="#1F2937" stroke-width="1.2" stroke-linecap="round" />
    <path
        d="M6.66667 7.33331H5.80353C4.02527 7.33331 3.13613 7.33331 2.58605 7.84225C2.44568 7.97211 2.3244 8.12251 2.22605 8.28865C1.84067 8.93978 1.99972 9.84518 2.31783 11.6559C2.54683 12.9594 2.66132 13.6111 3.05804 14.0436C3.16097 14.1558 3.27613 14.2553 3.40122 14.34C3.88333 14.6666 4.5234 14.6666 5.80354 14.6666H10.1965C11.4766 14.6666 12.1167 14.6666 12.5988 14.34C12.7239 14.2553 12.839 14.1558 12.9419 14.0436C13.3387 13.6111 13.4532 12.9594 13.6822 11.6559C14.0003 9.84518 14.1593 8.93978 13.7739 8.28865C13.6756 8.12251 13.5543 7.97211 13.4139 7.84225C12.8639 7.33331 11.9747 7.33331 10.1965 7.33331H9.33333"
        stroke="#1F2937" stroke-width="1.2" stroke-linecap="round" />
</svg>