<svg xmlns="http://www.w3.org/2000/svg" width="16" height="16" viewBox="0 0 16 16" fill="none">
    <g clip-path="url(#clip0_2_374)">
        <path
            d="M5.22872 2.5349C6.5812 1.73396 7.25747 1.3335 8 1.3335C8.74253 1.3335 9.4188 1.73396 10.7713 2.5349L11.2287 2.8058C12.5812 3.60674 13.2575 4.00721 13.6287 4.66683C14 5.32645 14 6.12739 14 7.7293V8.27103C14 9.87296 14 10.6739 13.6287 11.3335C13.2575 11.9931 12.5812 12.3936 11.2287 13.1945L10.7713 13.4654C9.4188 14.2664 8.74253 14.6668 8 14.6668C7.25747 14.6668 6.5812 14.2664 5.22872 13.4654L4.77128 13.1945C3.4188 12.3936 2.74256 11.9931 2.37128 11.3335C2 10.6739 2 9.87296 2 8.27103V7.7293C2 6.12739 2 5.32645 2.37128 4.66683C2.74256 4.00721 3.4188 3.60674 4.77128 2.8058L5.22872 2.5349Z"
            stroke="#1F2937" stroke-width="1.2" />
        <path
            d="M8 10.0002C9.10457 10.0002 10 9.10481 10 8.00024C10 6.89567 9.10457 6.00024 8 6.00024C6.89543 6.00024 6 6.89567 6 8.00024C6 9.10481 6.89543 10.0002 8 10.0002Z"
            stroke="#1F2937" stroke-width="1.2" />
    </g>
    <defs>
        <clipPath id="clip0_2_374">
            <rect width="16" height="16" fill="white" transform="translate(0 0.000244141)" />
        </clipPath>
    </defs>
</svg>