<svg width="18" height="18" viewBox="0 0 18 18" fill="none" xmlns="http://www.w3.org/2000/svg">
    <path fill-rule="evenodd"
        clip-rule="evenodd"
        d="M7.28628 0.875C5.75482 0.874984 4.54178 0.874975 3.59244 1.00262C2.61543 1.13397 1.82463 1.41073 1.20099 2.03437C0.57736 2.65801 0.300593 3.4488 0.169243 4.42582C0.0416013 5.37516 0.0416097 6.58818 0.0416264 8.11967V9.88033C0.0416097 11.4118 0.0416013 12.6248 0.169243 13.5742C0.300593 14.5512 0.57736 15.342 1.20099 15.9657C1.82463 16.5893 2.61543 16.866 3.59244 16.9974C4.54178 17.125 5.75479 17.125 7.28624 17.125H10.7136C10.9755 17.125 11.2281 17.125 11.4716 17.1243C11.481 17.1248 11.4905 17.125 11.5 17.125C11.5107 17.125 11.5214 17.1248 11.532 17.1242C12.6853 17.1207 13.6339 17.1014 14.4075 16.9974C15.3845 16.866 16.1753 16.5893 16.799 15.9657C17.4225 15.342 17.6993 14.5512 17.8307 13.5742C17.9583 12.6248 17.9583 11.4118 17.9583 9.88042V8.11967C17.9583 6.58821 17.9583 5.37515 17.8307 4.42582C17.6993 3.4488 17.4225 2.65801 16.799 2.03437C16.1753 1.41073 15.3845 1.13397 14.4075 1.00262C13.6339 0.898609 12.6853 0.879359 11.532 0.8758C11.5214 0.875267 11.5107 0.875 11.5 0.875C11.4905 0.875 11.481 0.875209 11.4716 0.875634C11.228 0.875 10.9755 0.875 10.7136 0.875H7.28628ZM10.875 2.12502C10.8064 2.125 10.737 2.125 10.6666 2.125H7.33329C5.74428 2.125 4.61538 2.12633 3.759 2.24147C2.92059 2.35419 2.43755 2.56558 2.08488 2.91825C1.7322 3.27093 1.52082 3.75397 1.40809 4.59238C1.29295 5.44876 1.29163 6.57765 1.29163 8.16667V9.83333C1.29163 11.4223 1.29295 12.5512 1.40809 13.4077C1.52082 14.246 1.7322 14.7291 2.08488 15.0817C2.43755 15.4344 2.92059 15.6458 3.759 15.7585C4.61538 15.8737 5.74428 15.875 7.33329 15.875H10.6666C10.737 15.875 10.8064 15.875 10.875 15.875V2.12502ZM12.125 15.8703C12.9863 15.8612 13.6735 15.8348 14.241 15.7585C15.0793 15.6458 15.5624 15.4344 15.915 15.0817C16.2677 14.7291 16.4791 14.246 16.5918 13.4077C16.707 12.5512 16.7083 11.4223 16.7083 9.83333V8.16667C16.7083 6.57765 16.707 5.44876 16.5918 4.59238C16.4791 3.75397 16.2677 3.27093 15.915 2.91825C15.5624 2.56558 15.0793 2.35419 14.241 2.24147C13.6735 2.16518 12.9863 2.13885 12.125 2.12978V15.8703Z"
        fill="#1F2937" />
</svg>