<svg xmlns="http://www.w3.org/2000/svg" width="16" height="16" viewBox="0 0 16 16" fill="none">
    <g clip-path="url(#clip0_2_391)">
        <path fill-rule="evenodd" clip-rule="evenodd"
            d="M7.99992 0.833496C6.25102 0.833496 4.83325 2.25126 4.83325 4.00016C4.83325 5.74906 6.25102 7.16683 7.99992 7.16683C9.74885 7.16683 11.1666 5.74906 11.1666 4.00016C11.1666 2.25126 9.74885 0.833496 7.99992 0.833496ZM5.83325 4.00016C5.83325 2.80354 6.80332 1.8335 7.99992 1.8335C9.19652 1.8335 10.1666 2.80354 10.1666 4.00016C10.1666 5.19678 9.19652 6.16683 7.99992 6.16683C6.80332 6.16683 5.83325 5.19678 5.83325 4.00016Z"
            fill="#1F2937" />
        <path
            d="M12 2.16675C11.7239 2.16675 11.5 2.39061 11.5 2.66675C11.5 2.94289 11.7239 3.16675 12 3.16675C12.9177 3.16675 13.5 3.77057 13.5 4.33341C13.5 4.89626 12.9177 5.50008 12 5.50008C11.7239 5.50008 11.5 5.72394 11.5 6.00008C11.5 6.27622 11.7239 6.50008 12 6.50008C13.2915 6.50008 14.5 5.61151 14.5 4.33341C14.5 3.05531 13.2915 2.16675 12 2.16675Z"
            fill="#1F2937" />
        <path
            d="M4.5 2.66675C4.5 2.39061 4.27614 2.16675 4 2.16675C2.70852 2.16675 1.5 3.05531 1.5 4.33341C1.5 5.61151 2.70852 6.50008 4 6.50008C4.27614 6.50008 4.5 6.27622 4.5 6.00008C4.5 5.72394 4.27614 5.50008 4 5.50008C3.08234 5.50008 2.5 4.89626 2.5 4.33341C2.5 3.77057 3.08234 3.16675 4 3.16675C4.27614 3.16675 4.5 2.94289 4.5 2.66675Z"
            fill="#1F2937" />
        <path fill-rule="evenodd" clip-rule="evenodd"
            d="M8 8.16675C6.81047 8.16675 5.71097 8.48728 4.89422 9.03175C4.08097 9.57395 3.5 10.3778 3.5 11.3334C3.5 12.289 4.08097 13.0929 4.89422 13.6351C5.71097 14.1795 6.81047 14.5001 8 14.5001C9.18953 14.5001 10.289 14.1795 11.1058 13.6351C11.919 13.0929 12.5 12.289 12.5 11.3334C12.5 10.3778 11.919 9.57395 11.1058 9.03175C10.289 8.48728 9.18953 8.16675 8 8.16675ZM4.5 11.3334C4.5 10.8162 4.81446 10.2868 5.44892 9.86381C6.07989 9.44315 6.9804 9.16675 8 9.16675C9.0196 9.16675 9.92013 9.44315 10.5511 9.86381C11.1855 10.2868 11.5 10.8162 11.5 11.3334C11.5 11.8506 11.1855 12.38 10.5511 12.803C9.92013 13.2237 9.0196 13.5001 8 13.5001C6.9804 13.5001 6.07989 13.2237 5.44892 12.803C4.81446 12.38 4.5 11.8506 4.5 11.3334Z"
            fill="#1F2937" />
        <path
            d="M12.8448 9.22647C12.904 8.95674 13.1706 8.78607 13.4404 8.8452C14.0816 8.9858 14.6594 9.2398 15.0884 9.59087C15.5171 9.9416 15.8332 10.4237 15.8332 11.0003C15.8332 11.5768 15.5171 12.0589 15.0884 12.4097C14.6594 12.7607 14.0816 13.0147 13.4404 13.1553C13.1706 13.2145 12.904 13.0438 12.8448 12.7741C12.7857 12.5043 12.9564 12.2377 13.2261 12.1785C13.7544 12.0627 14.1765 11.8637 14.4552 11.6357C14.7342 11.4075 14.8332 11.1845 14.8332 11.0003C14.8332 10.8161 14.7342 10.5931 14.4552 10.3648C14.1765 10.1368 13.7544 9.93787 13.2261 9.822C12.9564 9.76287 12.7857 9.4962 12.8448 9.22647Z"
            fill="#1F2937" />
        <path
            d="M2.55953 8.8452C2.82926 8.78607 3.09587 8.95674 3.15502 9.22647C3.21417 9.4962 3.04346 9.76287 2.77373 9.822C2.24549 9.93787 1.82333 10.1368 1.54471 10.3648C1.26571 10.5931 1.16663 10.8161 1.16663 11.0003C1.16663 11.1845 1.26571 11.4075 1.54471 11.6357C1.82333 11.8637 2.24549 12.0627 2.77373 12.1785C3.04346 12.2377 3.21417 12.5043 3.15502 12.7741C3.09587 13.0438 2.82926 13.2145 2.55953 13.1553C1.91827 13.0147 1.34043 12.7607 0.911419 12.4097C0.482791 12.0589 0.166626 11.5768 0.166626 11.0003C0.166626 10.4237 0.482791 9.9416 0.911419 9.59087C1.34043 9.2398 1.91827 8.9858 2.55953 8.8452Z"
            fill="#1F2937" />
    </g>
    <defs>
        <clipPath id="clip0_2_391">
            <rect width="16" height="16" fill="white" transform="translate(0 0.000244141)" />
        </clipPath>
    </defs>
</svg>