<svg xmlns="http://www.w3.org/2000/svg" width="16" height="16" viewBox="0 0 16 16" fill="none">
    <path
        d="M5.99998 6.66668C7.47274 6.66668 8.66665 5.47277 8.66665 4.00001C8.66665 2.52725 7.47274 1.33334 5.99998 1.33334C4.52722 1.33334 3.33331 2.52725 3.33331 4.00001C3.33331 5.47277 4.52722 6.66668 5.99998 6.66668Z"
        stroke="#1F2937" stroke-width="1.2" />
    <path d="M10 6C11.1046 6 12 5.10457 12 4C12 2.89543 11.1046 2 10 2" stroke="#1F2937"
        stroke-width="1.2" stroke-linecap="round" />
    <path
        d="M3.92608 13.7229C4.55083 13.9003 5.25502 14 5.99998 14C8.57731 14 10.6666 12.8061 10.6666 11.3334C10.6666 9.86062 8.57731 8.66669 5.99998 8.66669C3.42265 8.66669 1.33331 9.86062 1.33331 11.3334C1.33331 11.5636 1.38436 11.787 1.48033 12"
        stroke="#1F2937" stroke-width="1.2" stroke-linecap="round" />
    <path
        d="M12 9.33334C13.1695 9.58981 14 10.2393 14 11C14 11.6862 13.3242 12.2819 12.3333 12.5803"
        stroke="#1F2937" stroke-width="1.2" stroke-linecap="round" />
</svg>