<svg xmlns="http://www.w3.org/2000/svg" width="21" height="24" viewBox="0 0 21 24" fill="none">
    <g clip-path="url(#clip0_459_545)">
        <path
            d="M19.6485 8.18824C18.0493 9.17647 17.0615 10.8706 17.0615 12.7529C17.0615 14.8706 18.3315 16.8 20.26 17.6C19.8837 18.8235 19.3193 19.9529 18.6137 20.9882C17.5789 22.4471 16.4971 23.9529 14.8979 23.9529C13.2986 23.9529 12.8283 23.0118 10.9468 23.0118C9.11242 23.0118 8.45392 24 6.94876 24C5.4436 24 4.40881 22.6353 3.23291 20.9412C1.68071 18.5882 0.787026 15.8588 0.73999 12.9882C0.73999 8.32941 3.7503 5.83529 6.76062 5.83529C8.35985 5.83529 9.67686 6.87059 10.6646 6.87059C11.6053 6.87059 13.1105 5.78824 14.8979 5.78824C16.7793 5.74118 18.5667 6.63529 19.6485 8.18824ZM14.0512 3.81176C14.8508 2.87059 15.2742 1.69412 15.3212 0.470588C15.3212 0.329412 15.3212 0.141176 15.2742 0C13.9101 0.141176 12.6401 0.8 11.7464 1.83529C10.9468 2.72941 10.4765 3.85882 10.4294 5.08235C10.4294 5.22353 10.4294 5.36471 10.4765 5.50588C10.5705 5.50588 10.7117 5.55294 10.8057 5.55294C12.0757 5.45882 13.2516 4.8 14.0512 3.81176Z"
            fill="black" />
    </g>
    <defs>
        <clipPath id="clip0_459_545">
            <rect width="19.52" height="24" fill="white" transform="translate(0.73999)" />
        </clipPath>
    </defs>
</svg>